<svg width="17" height="13" viewBox="0 0 17 13" fill="none" xmlns="http://www.w3.org/2000/svg">
<path d="M16.086 2.41722C11.786 2.15922 7.54897 3.34122 3.23197 3.15022C3.20146 3.14892 3.17091 3.15127 3.14097 3.15722C2.93264 2.18992 2.67124 1.23481 2.35797 0.296223C2.33792 0.227853 2.29654 0.167684 2.23987 0.124505C2.1832 0.0813258 2.1142 0.0573997 2.04297 0.0562237C1.44297 0.0562237 0.855966 -0.0137769 0.259966 0.00522311C0.0139659 0.0132231 -0.065034 0.418224 0.198966 0.454224C0.562966 0.504224 0.922966 0.582223 1.28697 0.630223C1.90397 0.711223 1.86397 0.877225 2.02697 1.45022C2.31097 2.45022 2.51697 3.46622 2.74797 4.47522C3.04797 5.78322 3.31897 7.74022 4.23197 8.87522C4.2146 8.90509 4.20412 8.93845 4.20129 8.97288C4.19847 9.00731 4.20337 9.04194 4.21563 9.07424C4.2279 9.10653 4.24722 9.13568 4.27219 9.15955C4.29717 9.18343 4.32715 9.20142 4.35997 9.21222C7.44797 9.99222 10.648 9.22322 13.779 9.18422C13.8407 9.1857 13.9015 9.16869 13.9536 9.13537C14.0056 9.10205 14.0465 9.05394 14.071 8.99722C14.1002 8.97309 14.1215 8.94067 14.132 8.90422C14.722 6.74622 16.024 4.82822 16.591 2.68722C16.6029 2.62443 16.5945 2.55946 16.5669 2.50179C16.5393 2.44413 16.4941 2.39677 16.4377 2.36663C16.3813 2.33649 16.3168 2.32515 16.2535 2.33425C16.1903 2.34335 16.1316 2.37242 16.086 2.41722ZM3.85397 3.88622C3.81394 3.92025 3.78388 3.96449 3.76697 4.01422C3.73269 4.0412 3.7047 4.07533 3.68497 4.11422L3.67697 4.11922L3.65697 4.08222C3.62992 4.01948 3.58017 3.96927 3.51769 3.94164C3.4552 3.91401 3.38458 3.911 3.31997 3.93322C3.31397 3.90722 3.30797 3.88222 3.30197 3.85622C3.48597 3.87222 3.66997 3.87922 3.85397 3.88622ZM4.86297 8.63022C5.0356 8.73737 5.22642 8.81194 5.42597 8.85022C5.26397 8.84222 5.10297 8.83322 4.94097 8.82122L4.86297 8.63022ZM11.356 8.62222C11.3756 8.59533 11.3911 8.56567 11.402 8.53422C11.4474 8.55997 11.4988 8.57341 11.551 8.57322H12.204C11.922 8.58822 11.637 8.60322 11.357 8.62222H11.356Z" fill="white"/>
<path d="M6.36094 10.9442C6.23794 10.1772 5.36094 10.0152 4.71794 10.0442C4.66817 10.0468 4.61995 10.0623 4.57794 10.0892C4.355 10.1502 4.15171 10.268 3.98794 10.4311C3.81276 10.5889 3.69136 10.7976 3.64078 11.0279C3.59021 11.2582 3.61299 11.4985 3.70594 11.7152C3.85438 12.0077 4.10037 12.2392 4.40138 12.3696C4.7024 12.5 5.03951 12.5211 5.35445 12.4293C5.66938 12.3375 5.94233 12.1385 6.12612 11.8668C6.3099 11.595 6.39296 11.2676 6.36094 10.9412V10.9442ZM4.61794 10.6152C4.63314 10.6183 4.64849 10.6207 4.66394 10.6222C4.67294 10.7072 4.68194 10.7921 4.69094 10.8771C4.65694 10.8831 4.62294 10.8892 4.59094 10.8982C4.54794 10.8522 4.49694 10.7982 4.45994 10.7672C4.50925 10.7128 4.56203 10.6617 4.61794 10.6141V10.6152ZM5.45094 11.7292C5.36886 11.7985 5.27266 11.849 5.16904 11.8774C5.06541 11.9057 4.95686 11.9111 4.85094 11.8932C4.86957 11.8828 4.88673 11.8701 4.90194 11.8552L4.92794 11.8252C5.01219 11.8171 5.09405 11.7926 5.16894 11.7532C5.22374 11.7693 5.28155 11.7725 5.33779 11.7624C5.39402 11.7523 5.44715 11.7293 5.49294 11.6952L5.45094 11.7292Z" fill="white"/>
<path d="M12.875 10.0944C12.8484 10.0788 12.8198 10.067 12.79 10.0594C12.767 10.0594 12.743 10.0524 12.719 10.0504L12.675 10.0394C12.6168 10.0249 12.5556 10.0277 12.499 10.0474C12.447 10.0474 12.399 10.0554 12.344 10.0604C12.0418 10.0964 11.7528 10.2052 11.502 10.3774C11.2803 10.5407 11.1073 10.7614 11.0016 11.0156C10.8958 11.2699 10.8614 11.5481 10.902 11.8204C10.9154 11.988 10.9674 12.1502 11.0539 12.2943C11.1405 12.4383 11.2592 12.5604 11.4008 12.651C11.5424 12.7416 11.703 12.7981 11.8701 12.8162C12.0372 12.8344 12.2063 12.8135 12.364 12.7554C12.7021 12.6851 13.0193 12.5373 13.2906 12.3237C13.562 12.1101 13.7802 11.8366 13.928 11.5244C14.218 10.7534 13.519 10.2944 12.875 10.0944ZM11.542 11.3944C11.542 11.4264 11.552 11.4584 11.56 11.4944C11.5628 11.5825 11.5705 11.6703 11.583 11.7574C11.5883 11.791 11.602 11.8227 11.623 11.8494C11.611 11.9008 11.599 11.9504 11.587 11.9984C11.5569 11.9457 11.5376 11.8876 11.53 11.8274C11.509 11.6822 11.5131 11.5344 11.542 11.3904V11.3944Z" fill="white"/>
</svg>
