<svg width="13" height="13" viewBox="0 0 13 13" fill="none" xmlns="http://www.w3.org/2000/svg">
<path d="M7.65696 7.77728L7.49296 7.94127L7.82096 8.20328L7.92096 8.10328L7.65896 7.80327L7.65696 7.77728ZM9.52796 8.45927L9.32796 8.35928L9.16396 8.81828L9.29496 8.88428L9.52496 8.45827L9.52796 8.45927ZM1.69196 11.6793V11.8103H2.24896V11.7103H1.69196V11.6793ZM6.44696 11.4483L6.02096 11.9073L6.08696 12.0073L6.87396 11.8073L6.44796 11.4463L6.44696 11.4483ZM3.55696 9.84328L3.35696 10.5973C3.81596 10.3673 3.81596 10.3673 3.55696 9.84328ZM9.42696 10.7283L9.49296 10.8923C10.018 10.8923 10.018 10.8923 10.149 10.4003L9.42796 10.7283H9.42696ZM11.592 7.97428C11.723 7.48228 11.428 7.25327 11.035 6.89227L11.396 7.71227L11.596 7.97428H11.592ZM4.61096 6.56428L4.51096 6.69527C4.77296 6.92527 4.96996 7.31828 5.55996 7.02328L4.57596 6.56428H4.61096ZM10.937 10.8273C11.1293 10.6607 11.2597 10.4342 11.3073 10.1843C11.3548 9.93441 11.3167 9.67579 11.199 9.45028L10.937 10.8273ZM9.23197 11.8113C8.57597 11.2543 8.57596 11.2543 8.11696 11.7453L9.23197 11.8113ZM6.67596 9.12127C6.01996 8.85927 5.62696 8.43227 5.00396 8.33427C5.26596 8.69527 5.92196 9.35127 6.08596 9.35127C6.29257 9.30306 6.49124 9.22562 6.67596 9.12127V9.12127ZM1.29796 9.54728L1.85696 7.18728C1.56169 7.49519 1.3543 7.87657 1.25634 8.29178C1.15839 8.70699 1.17345 9.14086 1.29996 9.54827L1.29796 9.54728ZM9.03696 5.67827C9.44319 5.56074 9.87076 5.53675 10.2876 5.6081C10.7044 5.67945 11.0996 5.84429 11.4436 6.09024C11.7877 6.33619 12.0715 6.65687 12.2738 7.0282C12.4762 7.39953 12.5918 7.81187 12.612 8.23428C12.678 8.95528 12.712 9.71028 12.776 10.4643C12.8315 10.8996 12.8649 11.3375 12.876 11.7763C12.8839 12.0339 12.8393 12.2904 12.745 12.5303C12.679 12.6613 12.417 12.8303 12.352 12.7603C11.729 12.3673 11.073 12.7933 10.452 12.7273C9.71288 12.63 8.96679 12.5965 8.22196 12.6273C6.43396 12.7863 4.63758 12.83 2.84396 12.7583C2.38496 12.7253 1.92596 12.7583 1.46696 12.7583C1.31923 12.7634 1.17202 12.7382 1.0344 12.6842C0.89679 12.6302 0.771698 12.5486 0.666845 12.4444C0.561992 12.3402 0.479601 12.2156 0.424757 12.0784C0.369912 11.9411 0.343777 11.794 0.347964 11.6463C0.413964 10.5643 0.216964 9.51527 0.247964 8.46527C0.335998 7.43016 0.816899 6.468 1.59196 5.77628C1.81177 5.59257 2.07225 5.46398 2.35175 5.40119C2.63125 5.3384 2.9217 5.34323 3.19896 5.41528L4.31396 5.64528H4.90396L5.20396 5.71128C5.37451 5.93848 5.59838 6.12019 5.8558 6.24036C6.11322 6.36053 6.39628 6.41545 6.67996 6.40027C7.52795 6.3503 8.35039 6.09127 9.07397 5.64627L9.03696 5.67827Z" fill="white"/>
<path d="M6.70996 1.67784L6.60996 1.57784L6.30996 2.06984L6.40996 2.13584L6.70996 1.67684V1.67784ZM7.10296 2.82484L6.70996 3.38184C7.39896 3.28184 7.39896 3.28184 7.10296 2.82484ZM5.20296 5.74284L4.90296 5.67684C4.30661 5.15322 3.81756 4.51882 3.46296 3.80884C3.19096 3.24456 3.14475 2.5977 3.33378 2.00049C3.52282 1.40329 3.93281 0.900828 4.47996 0.595838C5.15191 0.186796 5.92807 -0.0185451 6.71438 0.00470683C7.50069 0.0279588 8.26337 0.278805 8.90996 0.726838C9.33916 1.01362 9.6998 1.39157 9.96616 1.83373C10.2325 2.27588 10.3981 2.77136 10.451 3.28484C10.4537 3.64424 10.3789 4.00001 10.2317 4.32789C10.0845 4.65578 9.86837 4.94807 9.59796 5.18484L9.07296 5.70984H9.10596C8.82939 5.73 8.55505 5.77382 8.28596 5.84084C7.30313 6.22384 6.21028 6.21202 5.23596 5.80784" fill="white"/>
</svg>
