<svg width="11" height="17" viewBox="0 0 11 17" fill="none" xmlns="http://www.w3.org/2000/svg">
<path d="M10.678 10.4494C10.8816 8.46359 10.9841 6.46867 10.985 4.47242C10.927 3.05842 10.64 0.85842 9.05897 0.30342C7.66797 -0.18058 1.03697 -0.40858 1.56697 2.20342C0.924968 5.16042 1.14497 8.22442 0.96697 11.2294C0.85397 13.1834 0.416967 15.9624 3.10297 16.1974C4.34697 16.3064 5.59697 16.1594 6.84697 16.2424C7.74697 16.3024 9.09097 16.4574 9.86497 15.8424C11.161 14.8174 10.594 11.8854 10.678 10.4494ZM5.04697 1.69142C5.23802 1.61478 5.44119 1.57279 5.64697 1.56742C6.1282 1.50909 6.61635 1.55548 7.07797 1.70342C6.54831 2.03304 5.92281 2.17399 5.30297 2.10342C5.21214 1.9902 5.10919 1.88725 4.99597 1.79642C5.01297 1.75942 5.02897 1.72442 5.04697 1.69142ZM2.47097 1.52142C2.45097 1.56142 2.43097 1.60542 2.41097 1.65342C2.37418 1.66903 2.34135 1.69266 2.31488 1.72259C2.2884 1.75253 2.26896 1.788 2.25797 1.82642C2.24897 1.86042 2.24097 1.89542 2.23097 1.92642C2.19723 1.94861 2.17079 1.98026 2.15497 2.01742C2.19558 1.81877 2.30766 1.64193 2.46997 1.52042L2.47097 1.52142ZM5.85197 14.3804C5.83286 14.4461 5.80069 14.5073 5.75739 14.5603C5.71409 14.6133 5.66055 14.6571 5.59996 14.6889C5.53937 14.7207 5.47299 14.74 5.40478 14.7456C5.33657 14.7512 5.26793 14.743 5.20297 14.7214C4.29297 14.4954 4.83497 13.8064 5.34097 13.4714C5.41215 13.4587 5.48531 13.4626 5.55471 13.4829C5.62411 13.5032 5.68786 13.5393 5.74097 13.5884C5.82944 13.6978 5.8865 13.8292 5.90606 13.9685C5.92561 14.1079 5.90691 14.2499 5.85197 14.3794V14.3804ZM2.00697 2.40342C2.03982 2.3836 2.06837 2.35743 2.09097 2.32642C2.07097 2.44742 2.05397 2.56842 2.03497 2.68942C2.00097 2.83142 1.96897 2.97442 1.93497 3.11642C1.95997 2.87542 1.97797 2.63742 2.00697 2.40342ZM8.84297 7.68542C8.71897 9.18542 8.52397 10.6854 8.36397 12.1784C7.56397 12.1474 6.69297 12.4194 5.89397 12.4664C4.89204 12.5273 3.88648 12.4824 2.89397 12.3324C3.04797 11.1804 3.10597 10.0004 3.22297 8.84442C3.42297 6.89142 2.92297 4.98942 3.01497 3.06442C3.84197 3.61542 8.25197 3.27342 9.02597 3.13642C8.90597 4.63742 8.96797 6.17042 8.84297 7.68042V7.68542ZM10.278 4.38342C10.299 4.36844 10.3176 4.35021 10.333 4.32942C10.341 4.57042 10.343 4.80842 10.341 5.03842C10.3263 4.81909 10.3053 4.60075 10.278 4.38342Z" fill="white"/>
</svg>
