<svg width="14" height="13" viewBox="0 0 14 13" fill="none" xmlns="http://www.w3.org/2000/svg">
<path d="M7.92199 1.44664C8.46153 1.88951 8.85442 2.48529 9.04899 3.15564C9.25155 3.72014 9.31791 4.32451 9.24266 4.91951C9.16742 5.51452 8.9527 6.08334 8.61599 6.57964C9.75103 7.30171 10.7759 8.1838 11.659 9.19864C12.323 9.88464 13.807 11.3646 13.168 12.4816C12.268 14.0606 8.45599 9.23564 7.41499 7.76264C6.92825 8.10672 6.378 8.35067 5.79619 8.48032C5.21439 8.60997 4.61262 8.62274 4.02584 8.51789C3.43906 8.41304 2.87896 8.19265 2.37806 7.86953C1.87716 7.54641 1.44545 7.127 1.10799 6.63564C-1.59801 2.87464 5.50199 -2.64136 7.92199 1.44664ZM12.796 11.5906C12.75 11.3553 12.6652 11.1292 12.545 10.9216C12.562 10.9956 12.576 11.0706 12.587 11.1466C12.6685 11.2891 12.7384 11.4379 12.796 11.5916V11.5906ZM12.572 12.2706C12.485 12.2226 12.402 12.1706 12.322 12.1166C12.2962 12.1492 12.2614 12.1735 12.222 12.1866C12.3294 12.2443 12.4501 12.2729 12.572 12.2696V12.2706ZM7.13799 7.47764L7.20199 7.43864L7.17399 7.39964C7.15061 7.36055 7.14044 7.31497 7.14499 7.26964C7.11599 7.29364 7.08899 7.31964 7.05899 7.34264C7.09761 7.37922 7.12501 7.42605 7.13799 7.47764ZM5.45299 8.09564C5.43256 8.076 5.41565 8.053 5.40299 8.02764C5.23499 8.06464 5.06499 8.09264 4.89299 8.11364C4.87878 8.12631 4.86298 8.13706 4.84599 8.14564C5.04918 8.142 5.25194 8.1253 5.45299 8.09564V8.09564ZM3.86299 7.18864C6.95699 8.23564 8.70199 3.07464 5.88599 2.04364C5.83013 2.06152 5.76965 2.05831 5.71599 2.03464C2.27299 0.569642 0.540989 6.06264 3.86299 7.18864V7.18864Z" fill="white"/>
</svg>
