<svg width="16" height="16" viewBox="0 0 16 16" fill="none" xmlns="http://www.w3.org/2000/svg">
<path d="M15.871 5.52503C15.788 4.09403 15.724 1.75403 14.501 0.755026C13.06 -0.424974 10.372 0.0810264 8.71596 0.310026C7.62296 0.461026 6.53696 0.649026 5.44796 0.823026C4.40671 0.913259 3.37162 1.06418 2.34796 1.27503C0.596956 1.76803 0.0659563 3.32003 0.105956 4.98103C0.155956 6.93103 0.293956 9.47403 1.31496 11.181C2.21496 12.681 3.98996 12.615 5.42896 12.049C5.90396 13.242 6.40296 14.429 6.91096 15.608C6.94969 15.6737 7.00294 15.7297 7.06663 15.7717C7.13033 15.8137 7.20279 15.8405 7.27845 15.8501C7.35412 15.8598 7.43099 15.852 7.50318 15.8274C7.57537 15.8027 7.64097 15.7619 7.69496 15.708C8.20055 15.0763 8.62425 14.3831 8.95596 13.645C9.19571 13.2181 9.3946 12.7694 9.54996 12.305C9.56696 12.305 9.58296 12.31 9.60196 12.31C11.46 12.32 13.682 12.573 15.058 11.052C16.266 9.72103 15.965 7.15203 15.871 5.52503ZM14.513 9.94103C13.775 11.657 11.081 11.234 9.60396 11.221C9.53042 11.2177 9.45706 11.2307 9.38912 11.2591C9.32119 11.2874 9.26035 11.3304 9.21096 11.385C9.14045 11.3806 9.07039 11.3989 9.01096 11.437C8.53396 11.75 8.41896 12.426 8.19496 12.927C7.97814 13.4218 7.72617 13.9003 7.44096 14.359C7.02883 13.3454 6.51451 12.3764 5.90596 11.467C5.88051 11.4316 5.84821 11.4017 5.81096 11.379C5.78501 11.3567 5.75476 11.34 5.72208 11.3298C5.6894 11.3197 5.65498 11.3163 5.62096 11.32C4.05896 11.48 2.56696 11.652 1.91396 9.93503C1.42313 8.32949 1.17374 6.65991 1.17396 4.98103C1.08396 3.19003 1.89196 2.30803 3.67396 2.09103C5.24296 1.90103 6.80596 1.66303 8.37096 1.42603C10.0377 1.03954 11.7691 1.0252 13.442 1.38403C14.742 1.79303 14.727 4.46503 14.801 5.52403C15.0319 6.99958 14.9336 8.50795 14.513 9.94103V9.94103Z" fill="white"/>
<path d="M12.795 2.01277C12.2265 2.15603 11.6685 2.33812 11.125 2.55777C10.1047 2.80198 9.06895 2.97671 8.02498 3.08077C6.28498 3.29477 4.24998 3.25177 2.59198 3.87177C2.16698 4.03077 2.19198 4.75177 2.70598 4.71477C4.67298 4.57277 6.65698 4.33777 8.61398 4.09377C9.69098 3.95877 12.65 3.89977 13.182 2.68777C13.301 2.41777 13.172 1.96877 12.795 2.01277Z" fill="white"/>
<path d="M12.928 4.69141C12.288 4.78778 11.6636 4.96834 11.071 5.2284C10.1589 5.44884 9.23272 5.60589 8.29898 5.69841C6.48098 5.92141 4.63898 5.90541 2.82498 6.13041C2.74038 6.13041 2.65924 6.16401 2.59941 6.22384C2.53959 6.28366 2.50598 6.3648 2.50598 6.44941C2.50598 6.53401 2.53959 6.61515 2.59941 6.67497C2.65924 6.7348 2.74038 6.76841 2.82498 6.76841C4.76171 6.9472 6.71173 6.92542 8.64398 6.7034C9.90298 6.5904 12.524 6.50341 13.298 5.33641C13.3347 5.27107 13.3538 5.19733 13.3535 5.12239C13.3531 5.04745 13.3333 4.97389 13.2961 4.90889C13.2588 4.84388 13.2052 4.78967 13.1407 4.75155C13.0762 4.71343 13.0029 4.69271 12.928 4.69141V4.69141Z" fill="white"/>
<path d="M13.327 7.4707C12.6944 7.5586 12.0746 7.7221 11.481 7.9577C10.4804 8.17078 9.46518 8.30751 8.44395 8.36671C6.74395 8.50371 5.01195 8.4667 3.33095 8.7517C2.90795 8.8237 3.04995 9.42471 3.43095 9.45171C5.32606 9.57642 7.2281 9.54966 9.11895 9.3717C10.399 9.2717 12.8739 9.26271 13.7119 8.12971C13.9139 7.85171 13.63 7.4777 13.327 7.4707Z" fill="white"/>
</svg>
