<svg width="13" height="13" viewBox="0 0 13 13" fill="none" xmlns="http://www.w3.org/2000/svg">
<path d="M7.65696 7.77337L7.49296 7.93737L7.82096 8.19937L7.92096 8.09937L7.65896 7.79937L7.65696 7.77337ZM9.52796 8.45537L9.32796 8.35537L9.16396 8.81437L9.29496 8.88037L9.52496 8.45437L9.52796 8.45537ZM1.69196 11.6754V11.8064H2.24896V11.7064H1.69196V11.6754ZM6.44696 11.4444L6.02096 11.9034L6.08696 12.0034L6.87396 11.8034L6.44796 11.4424L6.44696 11.4444ZM3.55696 9.83937L3.35696 10.5934C3.81596 10.3634 3.81596 10.3634 3.55696 9.83937ZM9.42696 10.7244L9.49296 10.8884C10.018 10.8884 10.018 10.8884 10.149 10.3964L9.42796 10.7244H9.42696ZM11.592 7.97037C11.723 7.47837 11.428 7.24937 11.035 6.88837L11.396 7.70837L11.596 7.97037H11.592ZM4.61096 6.56037L4.51096 6.69137C4.77296 6.92137 4.96996 7.31437 5.55996 7.01937L4.57596 6.56037H4.61096ZM10.937 10.8234C11.1293 10.6568 11.2597 10.4303 11.3073 10.1804C11.3548 9.93051 11.3167 9.67188 11.199 9.44637L10.937 10.8234ZM9.23197 11.8074C8.57596 11.2504 8.57596 11.2504 8.11696 11.7414L9.23197 11.8074ZM6.67596 9.11737C6.01996 8.85537 5.62696 8.42837 5.00396 8.33037C5.26596 8.69137 5.92196 9.34737 6.08596 9.34737C6.29257 9.29916 6.49124 9.22171 6.67596 9.11737ZM1.29796 9.54337L1.85696 7.18337C1.56169 7.49128 1.3543 7.87267 1.25634 8.28788C1.15839 8.70308 1.17345 9.13695 1.29996 9.54437L1.29796 9.54337ZM9.03696 5.67437C9.44319 5.55684 9.87076 5.53285 10.2876 5.6042C10.7044 5.67555 11.0996 5.84038 11.4436 6.08633C11.7877 6.33229 12.0715 6.65296 12.2738 7.02429C12.4762 7.39563 12.5918 7.80797 12.612 8.23037C12.678 8.95137 12.712 9.70637 12.776 10.4604C12.8315 10.8957 12.8649 11.3336 12.876 11.7724C12.8839 12.03 12.8393 12.2865 12.745 12.5264C12.679 12.6574 12.417 12.8264 12.352 12.7564C11.729 12.3634 11.073 12.7894 10.452 12.7234C9.71288 12.6261 8.96679 12.5926 8.22196 12.6234C6.43396 12.7824 4.63758 12.8261 2.84396 12.7544C2.38496 12.7214 1.92596 12.7544 1.46696 12.7544C1.31923 12.7595 1.17202 12.7343 1.0344 12.6803C0.89679 12.6263 0.771698 12.5447 0.666845 12.4405C0.561992 12.3363 0.479601 12.2117 0.424757 12.0745C0.369912 11.9372 0.343777 11.7901 0.347964 11.6424C0.413964 10.5604 0.216964 9.51137 0.247964 8.46137C0.335998 7.42625 0.816899 6.4641 1.59196 5.77237C1.81177 5.58866 2.07225 5.46007 2.35175 5.39728C2.63125 5.3345 2.9217 5.33932 3.19896 5.41137L4.31396 5.64137H4.90396L5.20396 5.70737C5.37451 5.93458 5.59838 6.11629 5.8558 6.23645C6.11322 6.35662 6.39628 6.41154 6.67996 6.39637C7.52795 6.3464 8.35039 6.08737 9.07397 5.64237L9.03696 5.67437Z" fill="#191A19"/>
<path d="M6.70996 1.67393L6.60996 1.57393L6.30996 2.06593L6.40996 2.13193L6.70996 1.67293V1.67393ZM7.10296 2.82093L6.70996 3.37793C7.39896 3.27793 7.39896 3.27793 7.10296 2.82093ZM5.20296 5.73893L4.90296 5.67293C4.30661 5.14931 3.81756 4.51491 3.46296 3.80493C3.19096 3.24066 3.14475 2.5938 3.33378 1.99659C3.52282 1.39938 3.93281 0.896922 4.47996 0.591931C5.15191 0.18289 5.92807 -0.0224514 6.71438 0.00080058C7.50069 0.0240526 8.26337 0.274899 8.90996 0.722931C9.33916 1.00972 9.6998 1.38766 9.96616 1.82982C10.2325 2.27198 10.3981 2.76746 10.451 3.28093C10.4537 3.64033 10.3789 3.9961 10.2317 4.32399C10.0845 4.65187 9.86837 4.94416 9.59796 5.18093L9.07296 5.70593H9.10596C8.82939 5.72609 8.55505 5.76992 8.28596 5.83693C7.30313 6.21993 6.21028 6.20811 5.23596 5.80393" fill="#191A19"/>
</svg>
