<svg width="11" height="18" viewBox="0 0 11 18" fill="none" xmlns="http://www.w3.org/2000/svg">
<path d="M10.678 11.4455C10.8816 9.45968 10.9841 7.46477 10.985 5.46851C10.927 4.05451 10.64 1.85451 9.05897 1.29951C7.66797 0.815514 1.03697 0.587514 1.56697 3.19951C0.924968 6.15651 1.14497 9.22051 0.96697 12.2255C0.85397 14.1795 0.416967 16.9585 3.10297 17.1935C4.34697 17.3025 5.59697 17.1555 6.84697 17.2385C7.74697 17.2985 9.09097 17.4535 9.86497 16.8385C11.161 15.8135 10.594 12.8815 10.678 11.4455ZM5.04697 2.68751C5.23802 2.61087 5.44119 2.56889 5.64697 2.56351C6.1282 2.50518 6.61635 2.55158 7.07797 2.69951C6.54831 3.02913 5.92281 3.17009 5.30297 3.09951C5.21214 2.98629 5.10919 2.88334 4.99597 2.79251C5.01297 2.75551 5.02897 2.72051 5.04697 2.68751ZM2.47097 2.51751C2.45097 2.55751 2.43097 2.60151 2.41097 2.64951C2.37418 2.66512 2.34135 2.68875 2.31488 2.71869C2.2884 2.74862 2.26896 2.7841 2.25797 2.82251C2.24897 2.85651 2.24097 2.89151 2.23097 2.92251C2.19723 2.9447 2.17079 2.97636 2.15497 3.01351C2.19558 2.81487 2.30766 2.63803 2.46997 2.51651L2.47097 2.51751ZM5.85197 15.3765C5.83286 15.4422 5.80069 15.5034 5.75739 15.5564C5.71409 15.6094 5.66055 15.6532 5.59996 15.685C5.53937 15.7168 5.47299 15.7361 5.40478 15.7417C5.33657 15.7473 5.26793 15.7391 5.20297 15.7175C4.29297 15.4915 4.83497 14.8025 5.34097 14.4675C5.41215 14.4548 5.48531 14.4587 5.55471 14.479C5.62411 14.4993 5.68786 14.5354 5.74097 14.5845C5.82944 14.6939 5.8865 14.8253 5.90606 14.9646C5.92561 15.104 5.90691 15.246 5.85197 15.3755V15.3765ZM2.00697 3.39951C2.03982 3.3797 2.06837 3.35352 2.09097 3.32251C2.07097 3.44351 2.05397 3.56451 2.03497 3.68551C2.00097 3.82751 1.96897 3.97051 1.93497 4.11251C1.95997 3.87151 1.97797 3.63351 2.00697 3.39951ZM8.84297 8.68151C8.71897 10.1815 8.52397 11.6815 8.36397 13.1745C7.56397 13.1435 6.69297 13.4155 5.89397 13.4625C4.89204 13.5234 3.88648 13.4785 2.89397 13.3285C3.04797 12.1765 3.10597 10.9965 3.22297 9.84051C3.42297 7.88751 2.92297 5.98551 3.01497 4.06051C3.84197 4.61151 8.25197 4.26951 9.02597 4.13251C8.90597 5.63351 8.96797 7.16651 8.84297 8.67651V8.68151ZM10.278 5.37951C10.299 5.36453 10.3176 5.3463 10.333 5.32551C10.341 5.56651 10.343 5.80451 10.341 6.03451C10.3263 5.81518 10.3053 5.59685 10.278 5.37951Z" fill="#191A19"/>
</svg>
