<svg width="14" height="13" viewBox="0 0 14 13" fill="none" xmlns="http://www.w3.org/2000/svg">
<path d="M7.92199 1.44274C8.46153 1.8856 8.85442 2.48138 9.04899 3.15174C9.25155 3.71624 9.31791 4.3206 9.24266 4.91561C9.16742 5.51061 8.9527 6.07943 8.61599 6.57574C9.75103 7.2978 10.7759 8.17989 11.659 9.19474C12.323 9.88074 13.807 11.3607 13.168 12.4777C12.268 14.0567 8.45599 9.23174 7.41499 7.75874C6.92825 8.10281 6.378 8.34676 5.79619 8.47641C5.21439 8.60606 4.61262 8.61883 4.02584 8.51398C3.43906 8.40913 2.87896 8.18875 2.37806 7.86563C1.87716 7.54251 1.44545 7.12309 1.10799 6.63174C-1.59801 2.87074 5.50199 -2.64526 7.92199 1.44274ZM12.796 11.5867C12.75 11.3513 12.6652 11.1253 12.545 10.9177C12.562 10.9917 12.576 11.0667 12.587 11.1427C12.6685 11.2852 12.7384 11.434 12.796 11.5877V11.5867ZM12.572 12.2667C12.485 12.2187 12.402 12.1667 12.322 12.1127C12.2962 12.1453 12.2614 12.1696 12.222 12.1827C12.3294 12.2404 12.4501 12.269 12.572 12.2657V12.2667ZM7.13799 7.47374L7.20199 7.43474L7.17399 7.39574C7.15061 7.35664 7.14044 7.31106 7.14499 7.26574C7.11599 7.28974 7.08899 7.31574 7.05899 7.33874C7.09761 7.37532 7.12501 7.42215 7.13799 7.47374ZM5.45299 8.09174C5.43256 8.07209 5.41565 8.04909 5.40299 8.02374C5.23499 8.06074 5.06499 8.08874 4.89299 8.10974C4.87878 8.1224 4.86298 8.13316 4.84599 8.14174C5.04918 8.13809 5.25194 8.12139 5.45299 8.09174ZM3.86299 7.18474C6.95699 8.23174 8.70199 3.07074 5.88599 2.03974C5.83013 2.05761 5.76965 2.05441 5.71599 2.03074C2.27299 0.565736 0.540989 6.05874 3.86299 7.18474Z" fill="#191A19"/>
</svg>
