<svg width="17" height="14" viewBox="0 0 17 14" fill="none" xmlns="http://www.w3.org/2000/svg">
<path d="M16.086 3.41332C11.786 3.15532 7.54897 4.33732 3.23197 4.14632C3.20146 4.14502 3.17091 4.14737 3.14097 4.15332C2.93264 3.18601 2.67124 2.2309 2.35797 1.29232C2.33792 1.22395 2.29654 1.16378 2.23987 1.1206C2.1832 1.07742 2.1142 1.05349 2.04297 1.05232C1.44297 1.05232 0.855966 0.982317 0.259966 1.00132C0.0139659 1.00932 -0.065034 1.41432 0.198966 1.45032C0.562966 1.50032 0.922966 1.57832 1.28697 1.62632C1.90397 1.70732 1.86397 1.87332 2.02697 2.44632C2.31097 3.44632 2.51697 4.46232 2.74797 5.47132C3.04797 6.77932 3.31897 8.73632 4.23197 9.87132C4.2146 9.90118 4.20412 9.93455 4.20129 9.96898C4.19847 10.0034 4.20337 10.038 4.21563 10.0703C4.2279 10.1026 4.24722 10.1318 4.27219 10.1556C4.29716 10.1795 4.32715 10.1975 4.35997 10.2083C7.44797 10.9883 10.648 10.2193 13.779 10.1803C13.8407 10.1818 13.9015 10.1648 13.9536 10.1315C14.0056 10.0981 14.0465 10.05 14.071 9.99332C14.1002 9.96918 14.1215 9.93676 14.132 9.90032C14.722 7.74232 16.024 5.82432 16.591 3.68332C16.6029 3.62052 16.5945 3.55556 16.5669 3.49789C16.5393 3.44022 16.4941 3.39286 16.4377 3.36273C16.3813 3.33259 16.3168 3.32124 16.2535 3.33034C16.1903 3.33944 16.1316 3.36851 16.086 3.41332ZM3.85397 4.88232C3.81394 4.91635 3.78388 4.96058 3.76697 5.01032C3.73269 5.03729 3.7047 5.07142 3.68497 5.11032L3.67697 5.11532L3.65697 5.07832C3.62992 5.01557 3.58017 4.96536 3.51769 4.93773C3.4552 4.9101 3.38458 4.9071 3.31997 4.92932C3.31397 4.90332 3.30797 4.87832 3.30197 4.85232C3.48597 4.86832 3.66997 4.87532 3.85397 4.88232ZM4.86297 9.62632C5.0356 9.73347 5.22642 9.80804 5.42597 9.84632C5.26397 9.83832 5.10297 9.82932 4.94097 9.81732L4.86297 9.62632ZM11.356 9.61832C11.3756 9.59142 11.3911 9.56177 11.402 9.53032C11.4474 9.55606 11.4988 9.56951 11.551 9.56932H12.204C11.922 9.58432 11.637 9.59932 11.357 9.61832H11.356Z" fill="#191A19"/>
<path d="M6.36094 11.9402C6.23794 11.1732 5.36094 11.0112 4.71794 11.0402C4.66817 11.0429 4.61995 11.0584 4.57794 11.0852C4.355 11.1463 4.15171 11.2641 3.98794 11.4272C3.81276 11.585 3.69136 11.7937 3.64078 12.024C3.59021 12.2542 3.61299 12.4946 3.70594 12.7113C3.85438 13.0038 4.10037 13.2353 4.40138 13.3657C4.7024 13.4961 5.03951 13.5172 5.35445 13.4254C5.66938 13.3336 5.94233 13.1346 6.12612 12.8629C6.3099 12.5911 6.39296 12.2637 6.36094 11.9373V11.9402ZM4.61794 11.6112C4.63314 11.6144 4.64849 11.6168 4.66394 11.6183C4.67294 11.7033 4.68194 11.7882 4.69094 11.8732C4.65694 11.8792 4.62294 11.8853 4.59094 11.8943C4.54794 11.8483 4.49694 11.7943 4.45994 11.7633C4.50925 11.7089 4.56203 11.6578 4.61794 11.6102V11.6112ZM5.45094 12.7252C5.36886 12.7946 5.27266 12.8451 5.16904 12.8735C5.06541 12.9018 4.95686 12.9072 4.85094 12.8892C4.86957 12.8789 4.88673 12.8662 4.90194 12.8513L4.92794 12.8213C5.01219 12.8132 5.09405 12.7887 5.16894 12.7492C5.22374 12.7654 5.28155 12.7686 5.33779 12.7585C5.39402 12.7484 5.44715 12.7254 5.49294 12.6913L5.45094 12.7252Z" fill="#191A19"/>
<path d="M12.875 11.0905C12.8484 11.0749 12.8198 11.0631 12.79 11.0555C12.767 11.0555 12.743 11.0485 12.719 11.0465L12.675 11.0355C12.6168 11.021 12.5556 11.0238 12.499 11.0435C12.447 11.0435 12.399 11.0515 12.344 11.0565C12.0418 11.0925 11.7528 11.2012 11.502 11.3735C11.2803 11.5368 11.1073 11.7575 11.0016 12.0117C10.8958 12.2659 10.8614 12.5442 10.902 12.8165C10.9154 12.9841 10.9674 13.1463 11.0539 13.2903C11.1405 13.4344 11.2592 13.5565 11.4008 13.6471C11.5424 13.7377 11.703 13.7942 11.8701 13.8123C12.0372 13.8305 12.2063 13.8096 12.364 13.7515C12.7021 13.6812 13.0193 13.5334 13.2906 13.3198C13.562 13.1062 13.7802 12.8327 13.928 12.5205C14.218 11.7495 13.519 11.2905 12.875 11.0905ZM11.542 12.3905C11.542 12.4225 11.552 12.4545 11.56 12.4905C11.5628 12.5785 11.5705 12.6663 11.583 12.7535C11.5883 12.7871 11.602 12.8188 11.623 12.8455C11.611 12.8969 11.599 12.9465 11.587 12.9945C11.5569 12.9418 11.5376 12.8837 11.53 12.8235C11.509 12.6782 11.5131 12.5305 11.542 12.3865V12.3905Z" fill="#191A19"/>
</svg>
